<svg width="563" height="101" viewBox="0 0 563 101" fill="none" xmlns="http://www.w3.org/2000/svg">
<g clip-path="url(#clip0_1_52)">
<path d="M69.0444 100.926H21.1421C9.48683 100.926 0 91.4513 0 79.8107V38.3918C0 26.7512 9.48683 17.2763 21.1421 17.2763H69.069V37.752H21.1421C20.7971 37.752 20.5014 38.0473 20.5014 38.3918V79.8107C20.5014 80.1552 20.7971 80.4505 21.1421 80.4505H69.069V100.926H69.0444Z" fill="#231F20"/>
<path d="M126.828 9.6964C102.975 9.6964 83.5826 29.0646 83.5826 52.8872V66.7181H103.764V52.8872H103.838C103.838 40.2376 114.162 29.9259 126.828 29.9259C139.493 29.9259 149.818 40.2376 149.818 52.8872H149.892V66.7181H170.073V52.8872C170.073 29.0646 150.68 9.6964 126.828 9.6964Z" fill="#F9A440"/>
<path d="M260.58 100.926H205.186C193.531 100.926 184.044 91.4513 184.044 79.8107V17.2763H204.546V79.8107C204.546 80.1552 204.841 80.4505 205.186 80.4505H260.58C260.925 80.4505 261.22 80.1552 261.22 79.8107V17.2763H281.722V79.8107C281.722 91.4513 272.235 100.926 260.58 100.926Z" fill="#231F20"/>
<path d="M243.134 17.2763H222.632V90.6884H243.134V17.2763Z" fill="#231F20"/>
<path d="M357.542 100.926H317.451C305.451 100.926 295.693 91.1805 295.693 79.1954V39.1793C295.693 27.1942 305.451 17.4486 317.451 17.4486H357.542C369.543 17.4486 379.301 27.1942 379.301 39.1793V79.22C379.301 91.2052 369.543 100.951 357.542 100.951V100.926ZM317.451 38.4903C317.082 38.4903 316.786 38.7856 316.786 39.1547V79.1954C316.786 79.5646 317.082 79.8599 317.451 79.8599H357.542C357.912 79.8599 358.208 79.5646 358.208 79.1954V39.1793C358.208 38.8102 357.912 38.5149 357.542 38.5149H317.451V38.4903Z" fill="#231F20"/>
<path d="M413.749 101H393.247V17.4486H446.842C458.497 17.4486 467.984 26.9235 467.984 38.5641V52.5672C467.984 64.2078 458.497 73.6827 446.842 73.6827H413.724V101H413.749ZM413.749 53.2071H446.867C447.211 53.2071 447.507 52.9118 447.507 52.5672V38.5641C447.507 38.2195 447.211 37.9242 446.867 37.9242H413.749V53.2071Z" fill="#231F20"/>
<path d="M474.957 101L430.111 56.1849L415.622 70.6557L445.979 101H474.957Z" fill="#231F20"/>
<path d="M502.432 17.3009H481.931V100.926H502.432V17.3009Z" fill="#231F20"/>
<path d="M562.212 101L518.572 59.212L558.737 17.3009H529.759L489.594 59.212L533.234 101H562.212Z" fill="#231F20"/>
<path d="M549.916 1.79654V8.85965H547.969V1.79654H545.258V0H552.601V1.79654H549.891H549.916Z" fill="#231F20"/>
<path d="M561.078 8.85965V3.07627L558.589 6.86623H558.54L556.076 3.12549V8.88426H554.154V0H556.248L558.589 3.74074L560.93 0H563.025V8.85965H561.103H561.078Z" fill="#231F20"/>
</g>
<defs>
<clipPath id="clip0_1_52">
<rect width="563" height="101" fill="white"/>
</clipPath>
</defs>
</svg>
